<svg width="1165" height="765" viewBox="0 0 1165 765" fill="none" xmlns="http://www.w3.org/2000/svg">
<g clip-path="url(#clip0)">
<path fill-rule="evenodd" clip-rule="evenodd" d="M1157.68 556.688L1113.3 545.078C1080.5 536.499 977.5 552.532 882.266 605.675C799.188 652.034 672.479 730.951 586.768 754.955C501.056 778.959 448.429 738.865 395.503 697.999C342.268 657.746 289.95 617.039 236.715 576.786C183.48 536.532 131.162 495.826 60.2971 490.455C-10.8772 485.696 -98.7648 515.367 -143.625 530.655L-187.569 545.491L-62.9215 298.864L-30.7311 307.284C2.06667 315.863 66.4476 332.702 131.436 349.7C196.424 366.699 260.805 383.538 325.793 400.537C390.782 417.535 455.162 434.374 520.151 451.373C585.139 468.371 572.987 465.193 637.976 482.191C702.964 499.19 722.7 442.913 865.946 480.381C900.648 489.457 1080.5 536.499 1113.3 545.078L1157.68 556.688Z" fill="#7177F1" fill-opacity="0.3"/>
<path fill-rule="evenodd" clip-rule="evenodd" d="M1135 541.017L1102.81 532.597C1070.01 524.019 1005.63 507.179 913.695 543.491C821.449 580.423 702.868 670.825 616.888 695.359C530.909 719.893 478.434 679.498 425.664 638.324C372.581 597.77 320.419 556.755 267.336 516.201C214.253 475.646 162.091 434.631 91.1499 429.411C19.8956 424.81 -68.296 455.082 -113.312 470.679L-157.408 485.816L-31.1489 236L1.04157 244.42C33.8393 252.998 98.2203 269.838 163.209 286.836C228.197 303.835 292.578 320.674 357.566 337.672C422.554 354.671 486.935 371.51 551.923 388.509C616.912 405.507 681.292 422.346 746.281 439.345C811.269 456.343 875.65 473.183 940.638 490.181C1005.63 507.179 1070.01 524.019 1102.81 532.597L1135 541.017Z" fill="#9297EF"/>
<path fill-rule="evenodd" clip-rule="evenodd" d="M926.365 521.443L884.551 510.506C853.654 502.425 793.879 443.817 771.83 359.997C752.596 286.877 730.378 169.007 689.88 111.992C649.381 54.9761 576.979 62.3678 503.695 70.2218C430.72 77.4638 358.008 85.4675 285.034 92.7095C212.059 99.9516 139.347 107.955 84.0026 80.3146C28.9673 52.062 -8.17511 -10.3116 -27.0092 -42.26L-45.5803 -73.4468L-170.228 173.18L-139.903 181.111C-109.007 189.193 -48.3574 205.056 12.8638 221.069C74.0852 237.082 134.734 252.946 195.956 268.959C257.177 284.972 317.826 300.835 379.047 316.848C440.269 332.861 428.821 329.867 490.043 345.88C551.264 361.893 516.594 414.263 651.537 449.559C684.227 458.11 853.654 502.425 884.551 510.506L926.365 521.443Z" fill="#7177F1" fill-opacity="0.3"/>
<path fill-rule="evenodd" clip-rule="evenodd" d="M896.55 523.381L866.226 515.449C835.329 507.368 774.68 491.504 740.402 422.181C706.438 352.237 699.989 229.133 659.759 171.587C619.529 114.042 546.974 121.734 473.535 129.897C400.408 137.44 327.54 145.752 254.413 153.295C181.287 160.837 108.419 169.15 53.1505 141.359C-1.80485 112.948 -38.6433 49.9729 -57.3214 17.7158L-75.7406 -13.7717L-202 236.044L-171.675 243.975C-140.779 252.057 -80.1295 267.92 -18.9082 283.933C42.3131 299.946 102.962 315.81 164.183 331.823C225.405 347.836 286.054 363.699 347.275 379.712C408.496 395.725 469.146 411.589 530.367 427.602C591.588 443.615 652.237 459.478 713.459 475.491C774.68 491.504 835.329 507.368 866.226 515.449L896.55 523.381Z" fill="#9297EF"/>
</g>
<defs>
<clipPath id="clip0">
<rect width="1165" height="765" fill="white"/>
</clipPath>
</defs>
</svg>
