<svg width="925" height="716" viewBox="0 0 925 716" fill="none" xmlns="http://www.w3.org/2000/svg">
<g clip-path="url(#clip0)">
<path fill-rule="evenodd" clip-rule="evenodd" d="M-33.6357 551.951L16.6249 536.241C53.7635 524.633 167.42 532.429 269.853 579.096C359.211 619.806 494.93 690.351 588.77 707.818C682.611 725.285 744.027 679.546 805.829 632.988C867.932 587.034 929.046 540.69 991.15 494.736C1053.25 448.782 1114.37 402.439 1193.7 390.913C1273.33 379.992 1369.21 403.11 1418.13 415.058L1466.07 426.617L1344.26 183.2L1307.81 194.594C1270.67 206.202 1197.77 228.989 1124.18 251.99C1050.59 274.992 977.691 297.779 904.102 320.781C830.512 343.782 757.61 366.569 684.021 389.571C610.431 412.572 624.191 408.271 550.602 431.273C477.012 454.275 458.919 397.994 296.714 448.694C257.419 460.977 53.7635 524.633 16.6249 536.241L-33.6357 551.951Z" fill="#7177F1" fill-opacity="0.3"/>
<path fill-rule="evenodd" clip-rule="evenodd" d="M-7.26978 533.895L29.1811 522.501C66.3197 510.893 139.221 488.106 239.141 517.721C339.366 547.948 465.234 631.007 559.336 648.997C653.438 666.988 714.706 620.952 776.355 574.089C838.311 527.838 899.272 481.19 961.227 434.939C1023.18 388.688 1084.14 342.041 1163.55 330.664C1243.26 319.898 1339.43 343.61 1388.51 355.863L1436.6 367.719L1313.21 121.154L1276.76 132.547C1239.62 144.156 1166.72 166.943 1093.13 189.944C1019.54 212.946 946.643 235.733 873.053 258.734C799.464 281.736 726.562 304.523 652.972 327.524C579.383 350.526 506.481 373.313 432.892 396.315C359.302 419.316 286.4 442.103 212.811 465.105C139.221 488.106 66.3197 510.893 29.1811 522.501L-7.26978 533.895Z" fill="#9297EF"/>
<path fill-rule="evenodd" clip-rule="evenodd" d="M416.261 572.272L450.843 551.867C476.396 536.789 514.901 466.06 513.281 379.815C511.869 304.579 501.739 185.364 523.423 120.706C545.108 56.0469 611.686 46.1779 679.169 36.5487C746.22 26.4004 813.23 17.0505 880.281 6.90218C947.332 -3.24613 1014.34 -12.5961 1056.77 -52.3357C1098.76 -92.5945 1116.08 -161.646 1124.78 -196.97L1133.44 -231.496L1307.56 -22.2803L1282.48 -7.48204C1256.93 7.59547 1206.77 37.1921 1156.14 67.068C1105.51 96.9438 1055.35 126.54 1004.71 156.416C954.081 186.292 903.922 215.889 853.289 245.765C802.656 275.641 812.123 270.054 761.491 299.93C710.858 329.806 755.16 372.305 643.556 438.157C616.52 454.109 476.396 536.789 450.843 551.867L416.261 572.272Z" fill="#7177F1" fill-opacity="0.3"/>
<path fill-rule="evenodd" clip-rule="evenodd" d="M443.396 567.138L468.475 552.34C494.028 537.262 544.188 507.666 557.183 432.566C569.741 356.94 544.188 236.37 565.498 171.262C586.809 106.153 653.599 96.5392 721.3 87.1719C788.563 77.2787 855.791 68.1905 923.054 58.2974C990.318 48.4042 1057.55 39.316 1099.86 -0.551164C1141.74 -40.9442 1158.64 -110.506 1167.13 -146.092L1175.58 -180.873L1351.95 31.0482L1326.87 45.8465C1301.31 60.924 1251.15 90.5207 1200.52 120.397C1149.89 150.272 1099.73 179.869 1049.1 209.745C998.464 239.621 948.304 269.217 897.671 299.093C847.038 328.969 796.879 358.566 746.246 388.442C695.613 418.317 645.454 447.914 594.821 477.79C544.188 507.666 494.028 537.262 468.475 552.34L443.396 567.138Z" fill="#9297EF"/>
</g>
<defs>
<clipPath id="clip0">
<rect width="925" height="716" fill="white"/>
</clipPath>
</defs>
</svg>
