<svg width="210" height="42" viewBox="0 0 210 42" fill="none" xmlns="http://www.w3.org/2000/svg">
<path d="M58.2393 28.0117H55.2861L53.5049 18.7539L50.0479 28.2344H48.958L45.501 18.7539L43.6494 28.0117H40.708L44.165 10.832H45.7822L49.4971 22.3984L53.1299 10.832H54.7354L58.2393 28.0117ZM67.251 20.957V28H64.2041V20.957L58.415 10.832H61.6494L65.7158 18.1562L69.7939 10.832H73.0166L67.251 20.957Z" fill="#7177F1"/>
<path d="M87.9814 28.2344H86.751L84.8877 17.7578L79.3213 28.2344H78.0908L75.665 10.832H78.7705L80.0713 21.2383L85.4854 10.832H86.8096L88.4033 21.168L93.4189 10.832H96.7236L87.9814 28.2344ZM96.4775 21.6133C96.4775 18.5586 97.3096 15.9492 98.9736 13.7852C100.646 11.6133 102.817 10.5273 105.489 10.5273C107.544 10.5273 109.126 11.0742 110.235 12.168C111.345 13.2539 111.899 14.8281 111.899 16.8906C111.899 20.2734 111.048 23.0195 109.345 25.1289C107.642 27.2383 105.31 28.293 102.349 28.293C100.536 28.293 99.1025 27.6836 98.0479 26.4648C97.001 25.2383 96.4775 23.6211 96.4775 21.6133ZM99.6416 21.2969C99.6416 22.6172 99.9033 23.668 100.427 24.4492C100.95 25.2305 101.716 25.6211 102.724 25.6211C104.583 25.6211 106.052 24.7852 107.13 23.1133C108.208 21.4414 108.747 19.4453 108.747 17.125C108.747 14.5 107.591 13.1875 105.278 13.1875C103.653 13.1875 102.306 14.0469 101.235 15.7656C100.173 17.4844 99.6416 19.3281 99.6416 21.2969ZM122.071 20.3945L125.903 28H122.47L119.188 20.8984C118.657 20.8906 118.005 20.8594 117.231 20.8047L115.907 28H112.767L115.907 10.832C118.188 10.7148 119.685 10.6562 120.396 10.6562C122.247 10.6562 123.708 11.0156 124.778 11.7344C125.856 12.4453 126.396 13.4766 126.396 14.8281C126.396 16.2031 126.001 17.3984 125.212 18.4141C124.431 19.4219 123.384 20.082 122.071 20.3945ZM118.567 13.4688L117.688 18.2734C118.149 18.3203 118.56 18.3438 118.919 18.3438C121.872 18.3438 123.349 17.4062 123.349 15.5312C123.349 14.7422 123.063 14.1836 122.493 13.8555C121.931 13.5195 120.993 13.3516 119.681 13.3516C119.571 13.3516 119.2 13.3906 118.567 13.4688ZM136.696 18.3789L140.962 28H137.528L134.317 20.6641L131.88 23.3477L131.013 28H127.966L131.118 10.832H134.165L132.747 18.6367L139.872 10.832H143.481L136.696 18.3789Z" fill="#EBEBEB"/>
<rect y="28.5714" width="35.9763" height="1.07143" fill="#EBEBEB"/>
<rect y="28.5714" width="35.9763" height="1.07143" fill="#EBEBEB"/>
<rect y="28.5714" width="35.9763" height="1.07143" fill="#EBEBEB"/>
<rect y="28.5714" width="35.9763" height="1.07143" fill="#EBEBEB"/>
<g filter="url(#filter0_f)">
<rect x="154.023" y="20" width="35.9763" height="1.07143" fill="#7177F1"/>
</g>
<rect x="11.2422" y="20" width="26.9822" height="1.07143" fill="#EBEBEB"/>
<g filter="url(#filter1_f)">
<rect x="158.521" y="28.5714" width="26.9822" height="1.07143" fill="#7177F1"/>
</g>
<g filter="url(#filter2_f)">
<rect x="158.521" y="11.4286" width="26.9822" height="1.07143" fill="#7177F1"/>
</g>
<rect x="23.6094" y="11.4286" width="17.9882" height="1.07143" fill="#EBEBEB"/>
<defs>
<filter id="filter0_f" x="134.023" y="0" width="75.9763" height="41.0714" filterUnits="userSpaceOnUse" color-interpolation-filters="sRGB">
<feFlood flood-opacity="0" result="BackgroundImageFix"/>
<feBlend mode="normal" in="SourceGraphic" in2="BackgroundImageFix" result="shape"/>
<feGaussianBlur stdDeviation="10" result="effect1_foregroundBlur"/>
</filter>
<filter id="filter1_f" x="156.521" y="26.5714" width="30.9822" height="5.07143" filterUnits="userSpaceOnUse" color-interpolation-filters="sRGB">
<feFlood flood-opacity="0" result="BackgroundImageFix"/>
<feBlend mode="normal" in="SourceGraphic" in2="BackgroundImageFix" result="shape"/>
<feGaussianBlur stdDeviation="1" result="effect1_foregroundBlur"/>
</filter>
<filter id="filter2_f" x="156.521" y="9.42856" width="30.9822" height="5.07143" filterUnits="userSpaceOnUse" color-interpolation-filters="sRGB">
<feFlood flood-opacity="0" result="BackgroundImageFix"/>
<feBlend mode="normal" in="SourceGraphic" in2="BackgroundImageFix" result="shape"/>
<feGaussianBlur stdDeviation="1" result="effect1_foregroundBlur"/>
</filter>
</defs>
</svg>
